<?xml version="1.0" encoding="UTF-8"?>

<svg xmlns="http://www.w3.org/2000/svg" xml:space="preserve" width="1.12191in" height="1.14924in" version="1.1" shape-rendering="geometricPrecision" text-rendering="geometricPrecision" image-rendering="optimizeQuality" fill-rule="evenodd" clip-rule="evenodd"
viewBox="0 0 2966 3038"
 xmlns:xlink="http://www.w3.org/1999/xlink">
 <g id="Layer_x0020_1">
  <path fill="#0e6195" fill-rule="nonzero" d="M2758 1526c0,0 218,-202 208,-422l-13 -18c0,0 -83,49 -140,39l-34 20c0,0 -29,-23 -78,16 0,0 -41,-67 -88,-47l31 -31c0,0 -18,-62 -163,-135 0,0 -29,-31 -68,-124l-57 -36c0,0 -7,-55 -15,-112 0,0 -31,-41 -65,-44 0,0 -5,-23 -8,-72 0,0 -28,-3 -70,-94 0,0 -49,-85 -62,-93l-21 -39 11 -16c0,0 46,78 80,91 0,0 44,-54 -3,-148 0,0 -49,24 -116,-10 0,0 -65,13 -94,34 0,0 -23,-24 -72,-8 0,0 11,-25 -67,-29 62,45 120,98 172,159 213,242 318,518 318,825 0,233 -56,439 -167,618 -113,180 -352,396 -719,648 -35,25 -68,49 -99,73 1,6 2,11 2,16 -78,615 380,502 721,246 0,0 51,-67 20,-111 0,0 13,-37 50,-42 0,0 121,0 72,-179 0,0 -46,-31 60,-78 0,0 34,-20 44,-49 0,0 145,-31 161,-119 0,0 -3,-114 -3,-148 0,0 42,-28 -26,-57 0,0 5,-41 -26,-70 0,0 52,-57 -8,-91 0,0 21,-124 143,-215 0,0 80,-127 189,-148zm-1152 -1228c-4,2 -7,3 -12,5 0,0 -72,-47 -129,-42 0,0 -13,-11 -21,-26 -83,-22 -172,-34 -269,-34 -217,0 -396,55 -537,166 -141,111 -213,206 -213,286 0,34 44,52 130,57 86,4 159,40 220,106 61,66 91,140 91,222 0,90 -33,166 -99,228 -52,50 -113,80 -182,90 19,4 36,10 48,20 0,0 295,-158 331,13 0,0 -2,29 135,-5 0,0 88,54 26,142 0,0 13,50 -21,94 0,0 13,41 13,49 0,0 56,53 107,120 16,-15 34,-29 51,-43 305,-237 500,-408 585,-510 85,-103 129,-228 129,-375 0,-176 -78,-331 -233,-462 -47,-40 -97,-73 -150,-101zm-342 -252c-1,-1 -3,-1 -4,-2 0,0 23,-3 26,-37 0,0 -16,-7 -37,-7l0 0c-16,0 -36,5 -54,20 0,0 -41,-28 -114,3 0,0 -111,-44 -207,15l-47 0c0,0 -86,60 -166,-23 0,0 -34,11 -57,62 0,0 -67,47 -119,60 0,0 -47,47 -42,104 0,0 -52,62 -135,77 0,0 -38,26 -49,65 0,0 -49,0 -78,81 0,0 -90,72 -114,140 0,0 60,114 -67,290l31 54 -23 63c0,0 106,36 142,225 0,0 91,65 205,145 0,0 56,-16 119,-24 -83,-11 -153,-47 -211,-107 -70,-72 -106,-181 -106,-329 0,-239 98,-445 297,-618 198,-173 439,-259 721,-259 31,0 60,1 89,2z"/>
 </g>
</svg>
